<mxfile host="app.diagrams.net" modified="2022-05-23T13:02:13.249Z" agent="5.0 (Windows NT 10.0; Win64; x64) AppleWebKit/537.36 (KHTML, like Gecko) Chrome/101.0.4951.41 Safari/537.36" etag="jXRN2RZH0ERZd_3O1qGw" version="18.1.1" type="github">
  <diagram id="C5RBs43oDa-KdzZeNtuy" name="Page-1">
    <mxGraphModel dx="1422" dy="772" grid="1" gridSize="10" guides="1" tooltips="1" connect="1" arrows="1" fold="1" page="1" pageScale="1" pageWidth="827" pageHeight="1169" math="0" shadow="0">
      <root>
        <mxCell id="WIyWlLk6GJQsqaUBKTNV-0" />
        <mxCell id="WIyWlLk6GJQsqaUBKTNV-1" parent="WIyWlLk6GJQsqaUBKTNV-0" />
        <mxCell id="-M3pmQ5bMC1EPvfwLZvw-0" style="edgeStyle=orthogonalEdgeStyle;rounded=0;orthogonalLoop=1;jettySize=auto;html=1;exitX=0.5;exitY=1;exitDx=0;exitDy=0;entryX=0.5;entryY=0;entryDx=0;entryDy=0;fontColor=#000000;" edge="1" parent="WIyWlLk6GJQsqaUBKTNV-1" source="-M3pmQ5bMC1EPvfwLZvw-1" target="-M3pmQ5bMC1EPvfwLZvw-16">
          <mxGeometry relative="1" as="geometry" />
        </mxCell>
        <mxCell id="-M3pmQ5bMC1EPvfwLZvw-1" value="获取机器所属平台" style="rounded=0;whiteSpace=wrap;html=1;" vertex="1" parent="WIyWlLk6GJQsqaUBKTNV-1">
          <mxGeometry x="130" y="200" width="160" height="40" as="geometry" />
        </mxCell>
        <mxCell id="-M3pmQ5bMC1EPvfwLZvw-2" style="edgeStyle=orthogonalEdgeStyle;rounded=0;orthogonalLoop=1;jettySize=auto;html=1;exitX=0.5;exitY=1;exitDx=0;exitDy=0;" edge="1" parent="WIyWlLk6GJQsqaUBKTNV-1" source="-M3pmQ5bMC1EPvfwLZvw-1" target="-M3pmQ5bMC1EPvfwLZvw-1">
          <mxGeometry relative="1" as="geometry" />
        </mxCell>
        <mxCell id="-M3pmQ5bMC1EPvfwLZvw-3" value="从SVN下载对应ID的测试数据到/data/Master/" style="rounded=0;whiteSpace=wrap;html=1;" vertex="1" parent="WIyWlLk6GJQsqaUBKTNV-1">
          <mxGeometry x="130" y="610" width="160" height="40" as="geometry" />
        </mxCell>
        <mxCell id="-M3pmQ5bMC1EPvfwLZvw-4" style="edgeStyle=orthogonalEdgeStyle;rounded=0;orthogonalLoop=1;jettySize=auto;html=1;exitX=0.5;exitY=1;exitDx=0;exitDy=0;entryX=0.5;entryY=0;entryDx=0;entryDy=0;fontColor=#000000;" edge="1" parent="WIyWlLk6GJQsqaUBKTNV-1" source="-M3pmQ5bMC1EPvfwLZvw-5" target="-M3pmQ5bMC1EPvfwLZvw-7">
          <mxGeometry relative="1" as="geometry" />
        </mxCell>
        <mxCell id="-M3pmQ5bMC1EPvfwLZvw-5" value="&lt;span style=&quot;&quot;&gt;/data/Master目录是否存在以患者ID命名的文件夹&lt;/span&gt;" style="rhombus;whiteSpace=wrap;html=1;" vertex="1" parent="WIyWlLk6GJQsqaUBKTNV-1">
          <mxGeometry x="110" y="430" width="200" height="60" as="geometry" />
        </mxCell>
        <mxCell id="-M3pmQ5bMC1EPvfwLZvw-6" style="edgeStyle=orthogonalEdgeStyle;rounded=0;orthogonalLoop=1;jettySize=auto;html=1;exitX=0.5;exitY=1;exitDx=0;exitDy=0;entryX=0.5;entryY=0;entryDx=0;entryDy=0;fontColor=#000000;" edge="1" parent="WIyWlLk6GJQsqaUBKTNV-1" source="-M3pmQ5bMC1EPvfwLZvw-7" target="-M3pmQ5bMC1EPvfwLZvw-3">
          <mxGeometry relative="1" as="geometry" />
        </mxCell>
        <mxCell id="-M3pmQ5bMC1EPvfwLZvw-7" value="&lt;span style=&quot;&quot;&gt;机器数据库imageobject表中，&lt;/span&gt;&lt;span style=&quot;font-family: &amp;quot;JetBrains Mono&amp;quot;, monospace; font-size: 9.8pt;&quot;&gt;PatientInstanceUID列是否有值与患者ID相同&lt;/span&gt;" style="rhombus;whiteSpace=wrap;html=1;" vertex="1" parent="WIyWlLk6GJQsqaUBKTNV-1">
          <mxGeometry x="110" y="524.5" width="200" height="60" as="geometry" />
        </mxCell>
        <mxCell id="-M3pmQ5bMC1EPvfwLZvw-8" style="edgeStyle=orthogonalEdgeStyle;rounded=0;orthogonalLoop=1;jettySize=auto;html=1;exitX=0.5;exitY=1;exitDx=0;exitDy=0;entryX=0.5;entryY=0;entryDx=0;entryDy=0;fontColor=#000000;" edge="1" parent="WIyWlLk6GJQsqaUBKTNV-1" source="-M3pmQ5bMC1EPvfwLZvw-10" target="-M3pmQ5bMC1EPvfwLZvw-5">
          <mxGeometry relative="1" as="geometry" />
        </mxCell>
        <mxCell id="-M3pmQ5bMC1EPvfwLZvw-9" value="" style="edgeStyle=orthogonalEdgeStyle;rounded=0;orthogonalLoop=1;jettySize=auto;html=1;fontColor=#000000;" edge="1" parent="WIyWlLk6GJQsqaUBKTNV-1" source="-M3pmQ5bMC1EPvfwLZvw-10" target="-M3pmQ5bMC1EPvfwLZvw-5">
          <mxGeometry relative="1" as="geometry" />
        </mxCell>
        <mxCell id="-M3pmQ5bMC1EPvfwLZvw-10" value="是否还有患者ID" style="rhombus;whiteSpace=wrap;html=1;" vertex="1" parent="WIyWlLk6GJQsqaUBKTNV-1">
          <mxGeometry x="110" y="340" width="200" height="60" as="geometry" />
        </mxCell>
        <mxCell id="-M3pmQ5bMC1EPvfwLZvw-11" style="edgeStyle=orthogonalEdgeStyle;rounded=0;orthogonalLoop=1;jettySize=auto;html=1;exitX=0.5;exitY=1;exitDx=0;exitDy=0;entryX=0.5;entryY=0;entryDx=0;entryDy=0;fontColor=#000000;" edge="1" parent="WIyWlLk6GJQsqaUBKTNV-1" source="-M3pmQ5bMC1EPvfwLZvw-12" target="-M3pmQ5bMC1EPvfwLZvw-14">
          <mxGeometry relative="1" as="geometry" />
        </mxCell>
        <mxCell id="-M3pmQ5bMC1EPvfwLZvw-12" value="开始" style="rounded=1;whiteSpace=wrap;html=1;labelBackgroundColor=none;fontColor=#000000;" vertex="1" parent="WIyWlLk6GJQsqaUBKTNV-1">
          <mxGeometry x="150" y="60" width="120" height="40" as="geometry" />
        </mxCell>
        <mxCell id="-M3pmQ5bMC1EPvfwLZvw-13" style="edgeStyle=orthogonalEdgeStyle;rounded=0;orthogonalLoop=1;jettySize=auto;html=1;exitX=0.5;exitY=1;exitDx=0;exitDy=0;entryX=0.5;entryY=0;entryDx=0;entryDy=0;fontColor=#000000;" edge="1" parent="WIyWlLk6GJQsqaUBKTNV-1" source="-M3pmQ5bMC1EPvfwLZvw-14" target="-M3pmQ5bMC1EPvfwLZvw-1">
          <mxGeometry relative="1" as="geometry" />
        </mxCell>
        <mxCell id="-M3pmQ5bMC1EPvfwLZvw-14" value="获取所有待测试数据患者ID" style="rounded=0;whiteSpace=wrap;html=1;" vertex="1" parent="WIyWlLk6GJQsqaUBKTNV-1">
          <mxGeometry x="130" y="130" width="160" height="40" as="geometry" />
        </mxCell>
        <mxCell id="-M3pmQ5bMC1EPvfwLZvw-15" style="edgeStyle=orthogonalEdgeStyle;rounded=0;orthogonalLoop=1;jettySize=auto;html=1;exitX=0.5;exitY=1;exitDx=0;exitDy=0;entryX=0.5;entryY=0;entryDx=0;entryDy=0;fontColor=#000000;" edge="1" parent="WIyWlLk6GJQsqaUBKTNV-1" source="-M3pmQ5bMC1EPvfwLZvw-16" target="-M3pmQ5bMC1EPvfwLZvw-10">
          <mxGeometry relative="1" as="geometry" />
        </mxCell>
        <mxCell id="-M3pmQ5bMC1EPvfwLZvw-16" value="获取对应平台标准测试数据的SVN存储路径" style="rounded=0;whiteSpace=wrap;html=1;" vertex="1" parent="WIyWlLk6GJQsqaUBKTNV-1">
          <mxGeometry x="130" y="270" width="160" height="40" as="geometry" />
        </mxCell>
        <mxCell id="-M3pmQ5bMC1EPvfwLZvw-17" value="否" style="text;html=1;align=center;verticalAlign=middle;resizable=0;points=[];autosize=1;strokeColor=none;fillColor=none;fontColor=#000000;" vertex="1" parent="WIyWlLk6GJQsqaUBKTNV-1">
          <mxGeometry x="205" y="490" width="30" height="20" as="geometry" />
        </mxCell>
        <mxCell id="-M3pmQ5bMC1EPvfwLZvw-18" value="是" style="text;html=1;align=center;verticalAlign=middle;resizable=0;points=[];autosize=1;strokeColor=none;fillColor=none;fontColor=#000000;" vertex="1" parent="WIyWlLk6GJQsqaUBKTNV-1">
          <mxGeometry x="205" y="400" width="30" height="20" as="geometry" />
        </mxCell>
        <mxCell id="-M3pmQ5bMC1EPvfwLZvw-19" value="否" style="text;html=1;align=center;verticalAlign=middle;resizable=0;points=[];autosize=1;strokeColor=none;fillColor=none;fontColor=#000000;" vertex="1" parent="WIyWlLk6GJQsqaUBKTNV-1">
          <mxGeometry x="215" y="590" width="30" height="20" as="geometry" />
        </mxCell>
      </root>
    </mxGraphModel>
  </diagram>
</mxfile>
